<?xml version="1.0" encoding="utf-8"?>
<!-- Generator: Adobe Illustrator 21.1.0, SVG Export Plug-In . SVG Version: 6.00 Build 0)  -->
<svg version="1.1" id="Layer_1" xmlns="http://www.w3.org/2000/svg" xmlns:xlink="http://www.w3.org/1999/xlink" x="0px" y="0px"
	 viewBox="0 0 600 600" style="enable-background:new 0 0 600 600;" xml:space="preserve">
<style type="text/css">
	.st0{fill:#BBBBBB;}
	.st1{fill:#444444;}
	.st2{fill:none;stroke:#000000;stroke-width:32;stroke-miterlimit:10;}
	.st3{fill:none;stroke:#FFFFFF;stroke-width:32;stroke-miterlimit:10;}
	.st4{fill:none;stroke:#046B99;stroke-width:32;stroke-miterlimit:10;}
	.st5{fill:none;stroke:#000000;stroke-width:18;stroke-miterlimit:10;}
</style>
<g id="bg">
	<circle class="st0" cx="299.5" cy="302.1" r="287.5"/>
</g>
<g id="bus">
	<path class="st1" d="M119.8,185l-9.1,15.5l-0.4,149.3l5.9,25.2l11.8,44l358.1,5.9c0,0,5.8-26.1,6.9-59.6
		c2.7-85.2-11.6-160.3-11.6-160.3l-3.4-23l-14.9-7.8L276.5,166l-145.3,0.7L119.8,185z"/>
</g>
<g id="Layer_2">
	<circle class="st2" cx="193.4" cy="397.2" r="32.3"/>
	<circle class="st2" cx="414.4" cy="397.6" r="32.3"/>
	<path class="st3" d="M126.8,376.7l-3-8.3c-2.6-7.2-3.7-14.9-3.2-22.5l-0.8-127.7c2-28.7,13.7-43.5,41.1-43.5l289.4-0.5
		c16.3,0.5,29.6,13.7,31.1,30.8l1.8,152.1l-4.1,19.7"/>
	<line class="st4" x1="139.2" y1="323.1" x2="463.1" y2="323.1"/>
	<rect x="260.7" y="214.1" class="st5" width="86.1" height="172.9"/>
</g>
</svg>
