<svg id="Layer_1" data-name="Layer 1" xmlns="http://www.w3.org/2000/svg" width="1257.31" height="127.45" viewBox="0 0 1257.31 127.45"><title>Artboard 2</title><path d="M41.19,125.24,52.09,93.1H33.25L22.53,125.24H7.76L18.47,93.1H0L4.07,80.35H22.9L33.8,47.11H15l3.88-12.56h19.4L48.95,2H63.73L53,34.54H71.66L82.38,2H97.16L86.26,34.54h18.65l-3.69,12.56H82L70.93,80.35H90.32L86.44,93.1H66.68L56,125.24Zm26-78.13H48.57L37.68,80.35H56.15Z" fill="#fff"/><path d="M207.79,125.24l-9-23.64H142.22l-9.05,23.64H108.61L157,2h27l48.39,123.2ZM170.49,23.83,148.32,82.57h44.33Z" fill="#fff"/><path d="M239.75,80.53c0-27,19-46.73,46.17-46.73,17.37,0,27.89,7.39,34.18,15.89L307.35,61.51A23.82,23.82,0,0,0,286.85,51c-16.25,0-27,12.19-27,29.55s10.71,29.74,27,29.74a24.25,24.25,0,0,0,20.5-10.53l12.75,11.82c-6.28,8.5-16.81,15.89-34.18,15.89C258.78,127.45,239.75,107.69,239.75,80.53Z" fill="#fff"/><path d="M331.56,80.53c0-27,19-46.73,46.17-46.73,17.37,0,27.89,7.39,34.18,15.89L399.15,61.51A23.82,23.82,0,0,0,378.65,51c-16.25,0-27,12.19-27,29.55s10.71,29.74,27,29.74a24.25,24.25,0,0,0,20.5-10.53l12.75,11.82c-6.28,8.5-16.81,15.89-34.18,15.89C350.58,127.45,331.56,107.69,331.56,80.53Z" fill="#fff"/><path d="M423.36,80.53c0-25.86,18.84-46.73,45.25-46.73,26.79,0,44,20.51,44,48.58V87h-68.9c1.48,13.48,11.64,24.56,28.45,24.56,8.68,0,19-3.5,25.31-9.79l8.86,12.74c-8.86,8.5-22,12.93-36.2,12.93C443.3,127.45,423.36,108.8,423.36,80.53Zm45.25-30.85c-16.62,0-24.2,12.75-25.12,23.64h50.24C493.36,62.81,486.16,49.69,468.61,49.69Z" fill="#fff"/><path d="M524,113.6l8.87-14c6.28,6.46,18.66,12.56,30.29,12.56s17.55-5,17.55-12c0-17.55-53.93-5-53.93-39.16,0-14.59,12.56-27.15,35.09-27.15,15.15,0,26.6,5.36,34.73,12.56L588.48,60c-5.36-6.09-15.33-10.71-26.41-10.71-10.16,0-16.63,4.62-16.63,10.89,0,15.89,53.94,4.07,53.94,39.53,0,15.7-13.12,27.71-37.13,27.71C547.11,127.45,533.25,122.65,524,113.6Z" fill="#fff"/><path d="M611.2,113.6l8.87-14c6.28,6.46,18.66,12.56,30.29,12.56s17.55-5,17.55-12c0-17.55-53.93-5-53.93-39.16,0-14.59,12.56-27.15,35.09-27.15,15.15,0,26.6,5.36,34.73,12.56L675.67,60c-5.36-6.09-15.33-10.71-26.41-10.71-10.16,0-16.63,4.62-16.63,10.89,0,15.89,53.94,4.07,53.94,39.53,0,15.7-13.12,27.71-37.13,27.71C634.29,127.45,620.44,122.65,611.2,113.6Z" fill="#fff"/><path d="M703.74,13.12a12.1,12.1,0,0,1,12-12,12,12,0,0,1,0,24A12.1,12.1,0,0,1,703.74,13.12Zm2.4,112.12V36h19.39v89.22Z" fill="#fff"/><path d="M750.66,125.24V2h19.39V48.4a35.27,35.27,0,0,1,28.63-14.6c22.91,0,39.53,18.1,39.53,46.92,0,29.37-16.81,46.73-39.53,46.73A35.87,35.87,0,0,1,770.05,113v12.19Zm42.3-15c15.51,0,25.31-12.2,25.31-29.56S808.47,51,793,51c-9.05,0-18.66,5.54-22.91,12.19V98.46C774.3,105.1,783.91,110.28,793,110.28Z" fill="#fff"/><path d="M858,125.24V2h19.39v123.2Z" fill="#fff"/><path d="M896.95,80.53c0-25.86,18.84-46.73,45.25-46.73,26.79,0,44,20.51,44,48.58V87h-68.9c1.48,13.48,11.64,24.56,28.45,24.56,8.68,0,19-3.5,25.31-9.79l8.86,12.74c-8.86,8.5-22,12.93-36.2,12.93C916.89,127.45,896.95,108.8,896.95,80.53ZM942.2,49.69c-16.62,0-24.2,12.75-25.12,23.64h50.24C967,62.81,959.75,49.69,942.2,49.69Z" fill="#fff"/><path d="M1000.39,63.73c0-36.75,26-63.73,63-63.73s63,27,63,63.73-26,63.73-63,63.73S1000.39,100.49,1000.39,63.73Zm103.8,0c0-25.49-16.07-44.52-40.82-44.52-24.94,0-40.82,19-40.82,44.52,0,25.31,15.89,44.52,40.82,44.52C1088.12,108.24,1104.19,89,1104.19,63.73Z" fill="#fff"/><path d="M1146.68,125.24V2h19.39v123.2Z" fill="#fff"/><path d="M1191.19,125.24V2h19.39v123.2Z" fill="#fff"/><path d="M1233.3,13.12a12.1,12.1,0,0,1,12-12,12,12,0,0,1,0,24A12.1,12.1,0,0,1,1233.3,13.12Zm2.4,112.12V36h19.39v89.22Z" fill="#fff"/></svg>