<svg xmlns="http://www.w3.org/2000/svg" viewBox="0 0 865.17 175.06"><defs><style>.cls-1{fill:#fff;}.cls-2{fill:#046b99;}</style></defs><title>Asset 2</title><g id="Layer_2" data-name="Layer 2"><g id="Layer_1-2" data-name="Layer 1"><path class="cls-1" d="M0,110.24C-.38,96.11,4.44,82.87,13.95,71.37c14.16-17.12,32.59-24.5,54.58-23a60.11,60.11,0,0,1,41.05,19.59c12.48,13.34,18.32,29.29,17.24,47.51A61.65,61.65,0,0,1,109,155.82c-14,14.42-31.4,20.36-51.28,19.05a59.09,59.09,0,0,1-34.81-14.06C7.62,147.91-.41,131.44,0,110.24Zm38.86-4.3-.62.23c1,3.32,1.49,6.89,3.07,9.9a97.25,97.25,0,0,0,8.77,13.78,159.29,159.29,0,0,0,11,12.31c.63.67,2.11,1.34,2.74,1a13.34,13.34,0,0,0,4.06-3.11c2.57-2.86,5.07-5.8,7.36-8.89a125.16,125.16,0,0,0,8.77-12.65c3.1-5.45,5-11.37,3.17-17.79-1.51-5.19-3.84-9.82-8.15-13.46a24.83,24.83,0,0,0-13.16-6c-7-.85-13.31,1.68-18.64,6.05C41.5,92.07,38.93,98.51,38.88,105.94Z"/><path class="cls-1" d="M137.86,6.68c1.15-.05,2-.13,2.92-.13,4.58,0,9.17.14,13.75,0,10.46-.39,18.06,4.62,23.3,13a23.4,23.4,0,0,1,3.24,11.62c.26,29.41.1,58.82.18,88.24a25.6,25.6,0,0,0,6,17,16.58,16.58,0,0,0,9.61,5.55c3.61.68,7.31.86,11.27,1.29-.49,5.3,1.07,10.82-1.26,16.21-3,7-8.68,10.75-15.41,13.16A38.58,38.58,0,0,1,174,174.83c-8.41-1-16.24-3.57-23.19-8.85-5.56-4.23-8.83-9.85-11.19-16a29.09,29.09,0,0,1-1.65-10.1Q137.77,75,137.86,10.1Z"/><path class="cls-1" d="M213.21,6.57c7.35,0,14.47-.88,21.28.2,10.78,1.72,17.88,8.62,21.13,19.11a24.29,24.29,0,0,1,.85,7.05c.05,29.16-.07,58.32.11,87.47,0,6.67,1.9,13.1,7.38,17.53a21.56,21.56,0,0,0,8,3.95c3.53.9,7.3.91,11.17,1.33.63,8.36,1.13,16.95-6,23.37a29.37,29.37,0,0,1-17.23,7.55,68.89,68.89,0,0,1-8.31.73,45,45,0,0,1-24.56-8c-6.92-4.76-10.52-11.7-13-19.36a19.27,19.27,0,0,1-.75-5.85q-.06-66.1,0-132.21Z"/><path class="cls-1" d="M287.84,53.47c5.74,0,11.3.09,16.86,0a23,23,0,0,1,12.49,3c6.56,3.9,11.62,9.11,13,17a42.72,42.72,0,0,1,.71,7.33c.07,12.25,0,24.49.06,36.74,0,5.42.92,10.71,3.62,15.57A17.3,17.3,0,0,0,346.88,142c3.68.72,7.48.85,11.9,1.31a87.86,87.86,0,0,0-.88,9.69,16.62,16.62,0,0,1-3.17,9.9,25.76,25.76,0,0,1-6.29,6.13c-4.47,3.12-9.61,4.39-15,5.33-6.47,1.12-12.44.14-18.59-1.44a37.33,37.33,0,0,1-12.22-5.42c-3.72-2.58-7.16-5.53-9.24-9.62a94.89,94.89,0,0,1-4.82-11.12,19.26,19.26,0,0,1-.81-6.32q-.07-42.11,0-84.22C287.7,55.37,287.78,54.56,287.84,53.47Z"/><path class="cls-1" d="M308.43,46.13c-12.7,1.27-23.8-10.78-23.16-23.92A23.31,23.31,0,1,1,331.8,25C331.22,35.17,322.18,47.31,308.43,46.13Z"/><path class="cls-1" d="M857,77.36c-5,4.9-11.53,5.2-16.92.78-6.61-5.43-6.33-17.23,0-22.33,5.5-4.45,12.31-3.86,16.56,1,.6-2.31,2.64-4.19,4.3-4,2.8.39,4.14,1.89,4.15,4.85,0,6.91.32,13.84-.08,20.73-.35,6-2.15,11.62-8.57,14-6.73,2.52-12.53,1.91-17.93-3.28a3.59,3.59,0,0,1-1-4.36c1.35-2.87,3.79-3,6.7-.65,4.46,3.56,9.77,3,12.22-2.34C857,80.54,856.79,78.87,857,77.36Zm-7-3.83c3.64,0,7-3.21,6.82-6.68-.1-2.43-3.43-6.67-7-6.71-3.29,0-6.59,4.07-6.41,7A6.59,6.59,0,0,0,850,73.54Z"/><path class="cls-1" d="M615.25,77.41c-5.79,5.33-11.88,4.63-16.69.57-6.09-5.15-6.23-14.55-1.85-20.12,4.16-5.29,11-7.44,18.73-1.55,0-4.89,0-9.5,0-14.11A4.14,4.14,0,0,1,620,37.89a4.57,4.57,0,0,1,3.73,3.93c0,11.49.1,23-.11,34.48,0,1.36-1.51,3.12-2.79,3.91a3.1,3.1,0,0,1-4.16-1.16A17.94,17.94,0,0,0,615.25,77.41Zm-6.89-3.87c4.07,0,7.09-2.8,7.09-6.58a6.8,6.8,0,0,0-7.06-6.65A6.4,6.4,0,0,0,602.2,67,6.28,6.28,0,0,0,608.36,73.54Z"/><path class="cls-1" d="M561.87,138.67c0,4.17,0,8,0,11.83a4.26,4.26,0,0,1-4,4.38,4.34,4.34,0,0,1-4.21-4.48q0-15.62,0-31.25c0-3.49.48-4.14,3.57-4.87,1.93-.46,3.77.65,4.93,3,6.31-5,12.59-4.84,18.26,1.39,4.68,5.14,4.13,13.45.19,18.5C576.46,142.42,569.85,144.5,561.87,138.67Zm7-4a6.66,6.66,0,0,0,6.37-6.63,6.74,6.74,0,0,0-6.58-6.72,6.92,6.92,0,0,0-6.83,6.64A7,7,0,0,0,568.92,134.7Z"/><path class="cls-1" d="M519.62,68.48c1.51-4.71,2.86-8.84,4.14-13,.76-2.46,2.57-3.92,4.51-3.5,2.68.58,4,2.61,3.07,5.52-1.71,5.42-3.69,10.75-5.55,16.11-.4,1.15-.74,2.31-1.13,3.47a4.64,4.64,0,0,1-4.24,3.26,3.69,3.69,0,0,1-4.19-2.7q-1.75-5.55-3.56-11.07c-.32-1-.72-1.95-1.36-3.66-.62,2.07-1,3.57-1.51,5-1.14,3.46-2.2,7-3.53,10.34-.94,2.39-4.67,3.14-6,1.07a59.72,59.72,0,0,1-4.74-9.53c-1.48-3.52-2.56-7.2-4-10.75-1.1-2.81-.54-5.49,1.62-6.63a3.62,3.62,0,0,1,5.4,2.29c1.34,4.23,2.7,8.46,4.11,12.88.37-.28.83-.45.91-.73,1-3.33,1.9-6.71,3-10,1.18-3.7,2.77-5.17,5.06-4.91,2.5.28,4.21,2.67,4.93,6S518.47,64.61,519.62,68.48Z"/><path class="cls-1" d="M686.3,55.67c2.43-1,4.64-2.58,6.95-2.75,6.11-.44,9.16,2.33,10.9,7.49a17.91,17.91,0,0,1,.78,5.06c.12,3.41,0,6.83,0,10.24,0,2.78-1.77,4.73-4.23,4.72s-4-1.88-4-4.61c0-3.16-.11-6.33,0-9.49a5,5,0,0,0-5.14-5.3c-3.51.17-5.26,1.77-5.28,5.37,0,3.08,0,6.16,0,9.24,0,2.91-1.63,4.79-4.12,4.78s-4.11-2-4.12-4.81q0-16.49,0-33c0-2.83,1.7-4.75,4.16-4.75s4.08,1.89,4.08,4.8C686.3,47.1,686.3,51.51,686.3,55.67Z"/><path class="cls-1" d="M556.5,77.45c-6.69,5.71-13.62,4.6-18.34-1.12s-4.66-13.06.12-18.95c4.29-5.27,11.61-6.61,17.78-1.31,2.39-2.93,5.12-3.86,7.21-2.13a5,5,0,0,1,1.57,3.31c.15,6.07-.06,12.15.14,18.22a4.76,4.76,0,0,1-2.85,4.77c-1.67.81-3.39.08-4.58-1.47Zm-7-3.92c4,0,6.94-2.72,7-6.42a6.66,6.66,0,0,0-6.88-6.81,6.63,6.63,0,0,0-.1,13.23Z"/><path class="cls-1" d="M478.05,117.24a4.64,4.64,0,0,1,5.88-2.72,3.24,3.24,0,0,1,2.76,3.51c0,6.24-.12,12.47,0,18.7a4.69,4.69,0,0,1-2.79,4.55,3.57,3.57,0,0,1-4.58-1.41c-.34-.47-.73-.9-1.08-1.34-6.2,5.42-13.6,4.57-18.34-1.07-4.44-5.28-4.41-13.64-.2-18.69C464.69,112.8,471.79,111.94,478.05,117.24Zm-6.74,17.46a7,7,0,0,0,7.07-6.68,6.71,6.71,0,0,0-7-6.65A6.47,6.47,0,0,0,465,128C465,131.57,468,134.7,471.31,134.7Z"/><path class="cls-1" d="M774.06,65c2.78,2.72,5.34,5.09,7.71,7.63a8.85,8.85,0,0,1,2,3.56,2.85,2.85,0,0,1-1.86,3.77c-1.7.69-2.9.66-4.17-.77C775,76,772,73,769.18,69.9l-.9.52c0,1.69,0,3.39,0,5.08,0,3-1.71,4.95-4.26,4.91s-4-1.95-4-4.87q0-16.47,0-32.95c0-2.82,1.7-4.72,4.18-4.71s4.11,2,4.11,4.78c0,5.64,0,11.29,0,17.7,2.37-2.31,4.26-4.18,6.18-6,2.79-2.69,5-2.23,6.74,1.26.9,1.79-.31,2.78-1.23,3.75C778.16,61.28,776.15,63,774.06,65Z"/><path class="cls-1" d="M687.4,117.2c1.53-2.65,3-3.25,5.72-2.7,2.1.42,2.88,1.59,2.86,3.63,0,6.07-.14,12.15,0,18.21a4.85,4.85,0,0,1-2.64,4.9c-1.95,1-3.65-.06-5-1.67a9.88,9.88,0,0,0-.88-.85c-7.41,5-13.59,4.68-18.41-1.48a14.6,14.6,0,0,1,.12-18.63C673.82,113,680.85,111.79,687.4,117.2Zm-6.8,17.51a7,7,0,0,0,7.12-6.64,6.74,6.74,0,0,0-7-6.69,6.43,6.43,0,0,0-6.35,6.57C674.38,131.6,677.22,134.69,680.6,134.7Z"/><path class="cls-1" d="M415.21,64.47c0,3.55,0,7.27,0,11s-3.9,6.45-6.94,4.09a5.74,5.74,0,0,1-2.07-3.87c-.17-10.48-.12-21-.08-31.45,0-2.74,1.54-4.19,4.31-4.2q8.86,0,17.72,0c1.91,0,4.13,2.17,4.09,3.89s-2.18,3.71-4,3.73c-4.23,0-8.45,0-12.85,0v8.76h8.42c3,0,4.71,1.36,4.77,3.73.06,2.54-1.6,3.86-4.86,3.88L416,64.1C415.83,64.11,415.69,64.24,415.21,64.47Z"/><path class="cls-1" d="M448.3,52.79c7.5,0,14.68,5.85,14.55,14.19a14.86,14.86,0,0,1-14.62,14.23c-7.66-.08-14.69-6.15-14.57-14.44A14.12,14.12,0,0,1,448.3,52.79Zm-.11,20.06a5.82,5.82,0,0,0,6.31-5.72c-.13-3.8-2.31-6.06-6.24-6.06s-6.14,2.27-6.35,6C441.75,70.17,445.12,73.32,448.19,72.85Z"/><path class="cls-1" d="M601.8,113.78c7.59.11,14.64,5.76,14.51,14.28a14.74,14.74,0,0,1-15,14.12c-7.3-.23-14.22-6-14.2-14.33A14.19,14.19,0,0,1,601.8,113.78Zm-.07,20.11c3.39.58,6.51-3,6.3-6a5.9,5.9,0,0,0-6.23-5.82c-3.78,0-6.4,2.39-6.41,5.87S597.95,133.89,601.73,133.89Z"/><path class="cls-1" d="M752.05,142.13a14.22,14.22,0,0,1-14.41-14.3c0-8.07,6.52-14.22,14.91-14,7.24.16,14.44,5.74,14.29,14.3C766.72,135.24,760.18,142.55,752.05,142.13Zm.26-20.08c-3.82,0-6.43,2.36-6.44,5.85s2.52,6,6.3,6,6.29-2.25,6.27-6C758.43,124.38,756,122.06,752.32,122.05Z"/><path class="cls-1" d="M812.59,56.28c4.6-4,8.28-4.62,13-2,3.26,1.85,4.2,5.25,4.48,8.55.38,4.38.11,8.82.09,13.24a4.17,4.17,0,1,1-8.34.06c0-3.33-.05-6.67,0-10,0-2.2-.77-4.25-2.68-4.9s-4.54-.81-6,1.55a5.13,5.13,0,0,0-.81,2.46c-.09,3.5,0,7,0,10.5a4.35,4.35,0,0,1-4.06,4.63c-2.5,0-4.21-1.85-4.21-4.7,0-5.75,0-11.5,0-17.25,0-2.08.05-4.25,2.61-5C809.63,52.62,811.36,53.87,812.59,56.28Z"/><path class="cls-1" d="M780.65,117.3c3.15-3.23,6.68-4.31,11.18-2.84a7.54,7.54,0,0,1,5.39,6.4,132.83,132.83,0,0,1,.83,16,4.61,4.61,0,0,1-1.54,3.31c-1,.78-3,1.51-3.88,1a6,6,0,0,1-2.74-3.93,80.53,80.53,0,0,1-.12-10.22c0-2.2-.87-4.19-2.8-4.83s-4.36-.69-5.81,1.51a5,5,0,0,0-.9,2.42c-.1,3.33,0,6.66,0,10s-1.54,5.3-4.11,5.32-4.24-2-4.24-5.2q0-8.24,0-16.48c0-2.18,0-4.42,2.61-5.22S779,114.46,780.65,117.3Z"/><path class="cls-1" d="M422.57,108.68c0,1.15,0,2,0,2.93q0,12.37,0,24.73a4.75,4.75,0,0,1-2.66,4.59,3.48,3.48,0,0,1-4.5-.54,6.6,6.6,0,0,1-1.71-4.08c-.16-8.16-.08-16.32-.08-24.48,0-.9,0-1.81,0-3.14-2.39,0-4.59,0-6.8,0-2.91,0-4.43-1.31-4.44-3.74s1.55-3.75,4.46-3.75q11.24,0,22.48,0c2.85,0,4.49,1.41,4.47,3.76s-1.61,3.71-4.46,3.73C427.18,108.69,425,108.68,422.57,108.68Z"/><path class="cls-1" d="M502,117.3c4.17-3.94,7.68-4.53,12.71-2.07a6.08,6.08,0,0,1,2.47,2.23,15.84,15.84,0,0,1,2.35,9.15c-.2,3.24,0,6.49,0,9.74s-1.58,5.08-4.07,5.12-4.15-1.84-4.16-5,.32-6.38-.13-9.48c-.25-1.73-1.41-4-2.81-4.71a4.31,4.31,0,0,0-5.74,1.43,5.74,5.74,0,0,0-.9,2.69c-.1,3.58,0,7.16-.05,10.74a4.29,4.29,0,0,1-4.12,4.31,4.19,4.19,0,0,1-4.17-4.24c0-5.91,0-11.83,0-17.74,0-2.31.11-4.48,3.13-5.05C498.81,114,500.34,114.61,502,117.3Z"/><path class="cls-1" d="M735.93,56.22c3.75-3.75,7.94-4.55,12.72-2,3.44,1.83,4.25,5.24,4.6,8.44.49,4.52.15,9.14.11,13.71a4.29,4.29,0,0,1-4.1,4.05,4.24,4.24,0,0,1-4.18-4q-.08-5.11,0-10.23a5.35,5.35,0,0,0-2.6-5c-1.64-1-4.92,0-6.22,1.71a4.43,4.43,0,0,0-.79,2.45c-.08,3.49,0,7,0,10.48,0,2.69-1.7,4.57-4.06,4.57a4.24,4.24,0,0,1-4.16-4.52q0-8.61,0-17.22c0-2.17,0-4.41,2.66-5.19S734.12,53.39,735.93,56.22Z"/><path class="cls-1" d="M536.5,142.35c-4.07-.14-7.49-1.23-10.1-4.61-1.32-1.7-1.73-3.27-.35-4.83,1.56-1.77,3.72-1.68,5.6.26a7,7,0,0,0,6.54,2.13c.71-.11,1.31-1,2-1.46-.47-.56-.83-1.39-1.42-1.63-1.88-.76-3.86-1.26-5.78-1.94-4.07-1.44-7.08-4.48-6.78-8.53a6.3,6.3,0,0,1,1.49-3.75c3.42-3.44,7.37-5.07,12.45-3.65a11.27,11.27,0,0,1,5.69,3.06c1.43,1.53,1.88,3.5.59,4.56-1,.83-3.45.75-4.81.12-1.74-.81-3.3-1.88-5.27-1.49-.67.13-1.23.87-1.84,1.33.45.52.8,1.26,1.37,1.52,2.37,1.06,4.86,1.88,7.22,3,3.57,1.63,5.7,4.77,5.45,7.7-.3,3.43-3,6.37-6.93,7.35C539.9,141.86,538.19,142.06,536.5,142.35Z"/><path class="cls-1" d="M660.16,52.86c0-2.5,0-4.48,0-6.47,0-2.81,1.73-4.84,4.09-4.85s4.2,2.06,4.21,4.75c0,2.06,0,4.12,0,6.42,2.79,0,5.85-.25,5.82,3.39,0,3.47-3,3.56-5.82,3.56,0,5.61,0,11,0,16.37a4.5,4.5,0,0,1-3.55,4.38,4.23,4.23,0,0,1-4.74-4.16c0-5.4,0-10.79,0-16.33-2.51-.45-5.36-.83-5.17-4C655.15,53.27,657.24,52.29,660.16,52.86Z"/><path class="cls-1" d="M649.72,120.66c-2.67-.05-4.79-.63-5.22-3.35-.28-1.77,1.61-3.14,5.22-3.91,0-2,0-4.06,0-6.12,0-2.74,1.61-4.54,4.06-4.58,2.63,0,4.18,1.67,4.19,4.66,0,2,0,4,0,6.26,2.77.11,6.1-.16,5.9,3.76-.18,3.37-3.18,3.14-5.9,3.22,0,5.58.07,11-.06,16.35a4.51,4.51,0,0,1-1.36,3.17c-1,.78-3,1.57-3.87,1.1a5.78,5.78,0,0,1-2.83-3.85c-.35-4.55-.13-9.15-.13-13.72C649.72,122.76,649.72,121.85,649.72,120.66Z"/><path class="cls-1" d="M705.62,113.79c0-2.55,0-4.7,0-6.85a4.06,4.06,0,0,1,4.11-4.24,4,4,0,0,1,4.11,4.22c0,2.15,0,4.3,0,6.75,2.92-.08,6.11,0,5.87,3.76-.19,3-3,3.3-5.87,3.06,0,1.82,0,3.45,0,5.08q0,5.49,0,11c0,3.12-1.58,5-4.22,4.92-2.39,0-4-2-4-4.88,0-5.22,0-10.45,0-15.8-2.58-.32-5.32-.56-5.15-3.79C700.61,114.26,702.67,113.37,705.62,113.79Z"/><path class="cls-1" d="M580,58.79c1.05-3.6,4.69-6.61,8.17-6,2,.34,4.33,2.26,4.27,3.84s-2.15,3.44-4.12,3.68a7.78,7.78,0,0,1-1.5,0c-5.35-.39-6.16,2.26-6.93,6.89-.44,2.67-.08,5.47-.08,8.22,0,3-1.64,5-4.16,5s-4.19-2-4.19-5q0-8.86,0-17.71c0-2.87,1.61-4.86,4-4.93,2.6-.08,4.27,1.74,4.38,4.75C579.82,57.79,579.88,58,580,58.79Z"/><path class="cls-1" d="M476.41,58.51c1.36-3.83,4.84-6.16,8.33-5.71,2,.26,4.08,2.15,4.11,3.71s-2,3.49-4,3.77a6.82,6.82,0,0,1-1.5,0c-5.16-.43-6.4,2.27-7,7.09a65.09,65.09,0,0,0-.07,8.23c0,2.81-1.72,4.79-4.13,4.8S468,78.54,468,75.66q0-9.11,0-18.22c0-2.73,1.63-4.61,4-4.65s4.16,1.75,4.31,4.6C476.26,57.71,476.34,58,476.41,58.51Z"/><path class="cls-1" d="M442.9,119.52c1.56-4.38,6.22-7,9.47-5.22,1.25.69,2.77,2.34,2.75,3.53,0,1.92-1.88,3.09-3.86,3.52a4.19,4.19,0,0,1-1.25,0c-5.43-.49-6.65,2.14-7.26,7.36a68.33,68.33,0,0,0-.05,7.74c0,3.09-1.62,5-4.16,5s-4.15-2.06-4.15-5.06q0-8.87,0-17.73c0-2.77,1.71-4.84,4-4.9,2.49-.07,4.12,1.7,4.3,4.62C442.73,118.72,442.81,119,442.9,119.52Z"/><path class="cls-1" d="M630.69,119c1.76-2.89,3.73-5.41,7.56-5.26,2.48.1,4.76,1.89,4.75,3.81s-2.39,4.05-4.77,3.72c-5.64-.79-7.54,2.67-7.75,8.2-.09,2.32,0,4.65,0,7,0,3.05-1.65,5-4.19,5s-4.12-1.92-4.12-5q0-8.85,0-17.7c0-2.94,1.55-4.87,4-4.94,2.57-.07,4.18,1.7,4.36,4.8A1.6,1.6,0,0,0,630.69,119Z"/><path class="cls-1" d="M724.19,127.41c0-3.16,0-6.32,0-9.47,0-2.68,1.49-4.13,4.1-4.15s4.17,1.35,4.19,4c0,6.48,0,13,0,19.45a4.18,4.18,0,0,1-4.2,4.21,4.31,4.31,0,0,1-4.09-4.34C724.17,133.9,724.19,130.65,724.19,127.41Z"/><path class="cls-1" d="M712.28,66.37c0-3.16,0-6.31,0-9.47,0-2.68,1.49-4.1,4.11-4.11s4.14,1.26,4.15,4q.06,9.72,0,19.44a4.21,4.21,0,0,1-4.2,4.19,4.29,4.29,0,0,1-4.08-4.33C712.26,72.85,712.28,69.61,712.28,66.37Z"/><path class="cls-1" d="M796.57,66.56c0,3.07,0,6.14,0,9.22,0,2.76-1.8,4.69-4.26,4.64-2.27,0-4-2-4-4.63q0-9.22,0-18.43c0-3.14,1.33-4.56,4.17-4.56s4.1,1.33,4.12,4.55C796.58,60.41,796.57,63.49,796.57,66.56Z"/><path class="cls-1" d="M641.58,62.43c2.33,0,4.66,0,7,0s3.58,1.27,3.55,3.46a3.2,3.2,0,0,1-3.41,3.38q-7.12.05-14.24,0a3.16,3.16,0,0,1-3.4-3.36c0-2.26,1.15-3.45,3.5-3.48S639.25,62.43,641.58,62.43Z"/><path class="cls-1" d="M728.09,108.67c-2.52,0-5.36-2.61-5.29-4.93s2.79-4.83,5.16-4.87,5.4,2.87,5.35,5S730.36,108.64,728.09,108.67Z"/><path class="cls-1" d="M810,142.12c-2.48.05-5.33-2.57-5.31-4.88,0-2.13,2.83-4.84,5-4.87,2.42,0,5.29,2.45,5.45,4.72S812.56,142.07,810,142.12Z"/><path class="cls-1" d="M792,47.66c-2.24-.05-5.14-2.8-5.14-4.88,0-2.24,3-5,5.38-4.88s5.16,2.77,5.16,4.87S794.22,47.71,792,47.66Z"/><path class="cls-1" d="M716,47.66c-2.22,0-5.26-2.8-5.13-4.86a5.85,5.85,0,0,1,5.34-4.9c2.34.09,5.15,2.74,5.17,4.85S718.3,47.7,716,47.66Z"/><path class="cls-2" d="M38.88,105.94c0-7.43,2.62-13.87,8.39-18.6C52.61,83,58.9,80.44,65.92,81.29a24.83,24.83,0,0,1,13.16,6c4.31,3.65,6.64,8.27,8.15,13.46,1.87,6.42-.07,12.34-3.17,17.79a125.16,125.16,0,0,1-8.77,12.65c-2.3,3.08-4.79,6-7.36,8.89a13.34,13.34,0,0,1-4.06,3.11c-.63.3-2.11-.38-2.74-1a159.29,159.29,0,0,1-11-12.31,97.25,97.25,0,0,1-8.77-13.78c-1.58-3-2.08-6.58-3.07-9.9Zm24.5-10C57,95.71,54,100.81,53.81,105c-.23,5.2,4.45,9.9,9.37,9.6,4.59-.28,9.34-3.57,9.4-9.66C72.62,100.11,68.21,95.43,63.38,95.93Z"/><path class="cls-2" d="M850,73.54a6.59,6.59,0,0,1-6.58-6.39c-.18-2.93,3.12-7,6.41-7,3.57,0,6.89,4.27,7,6.71C857,70.33,853.64,73.52,850,73.54Z"/><path class="cls-2" d="M608.36,73.54A6.28,6.28,0,0,1,602.2,67a6.4,6.4,0,0,1,6.19-6.73A6.8,6.8,0,0,1,615.45,67C615.45,70.74,612.43,73.54,608.36,73.54Z"/><path class="cls-2" d="M568.92,134.7a7,7,0,0,1-7-6.72,6.92,6.92,0,0,1,6.83-6.64,6.74,6.74,0,0,1,6.58,6.72A6.66,6.66,0,0,1,568.92,134.7Z"/><path class="cls-2" d="M549.55,73.54a6.63,6.63,0,0,1,.1-13.23,6.66,6.66,0,0,1,6.88,6.81C556.49,70.81,553.53,73.54,549.55,73.54Z"/><path class="cls-2" d="M471.31,134.7c-3.35,0-6.27-3.13-6.27-6.72a6.47,6.47,0,0,1,6.31-6.61,6.71,6.71,0,0,1,7,6.65A7,7,0,0,1,471.31,134.7Z"/><path class="cls-2" d="M680.6,134.7c-3.38,0-6.22-3.1-6.21-6.76a6.43,6.43,0,0,1,6.35-6.57,6.74,6.74,0,0,1,7,6.69A7,7,0,0,1,680.6,134.7Z"/><path class="cls-2" d="M448.19,72.85c-3.08.47-6.45-2.68-6.27-5.8.2-3.72,2.41-6,6.35-6s6.11,2.26,6.24,6.06A5.82,5.82,0,0,1,448.19,72.85Z"/><path class="cls-2" d="M601.73,133.89c-3.78,0-6.34-2.41-6.34-6s2.62-5.88,6.41-5.87a5.9,5.9,0,0,1,6.23,5.82C608.24,130.91,605.12,134.47,601.73,133.89Z"/><path class="cls-2" d="M752.32,122.05c3.69,0,6.12,2.33,6.13,5.86,0,3.73-2.35,6-6.27,6s-6.31-2.41-6.3-6S748.5,122,752.32,122.05Z"/><path class="cls-1" d="M63.38,95.93c4.83-.5,9.25,4.18,9.19,9-.06,6.08-4.81,9.37-9.4,9.66-4.92.3-9.6-4.4-9.37-9.6C54,100.81,57,95.71,63.38,95.93Z"/></g></g></svg>